<svg xmlns="http://www.w3.org/2000/svg" width="9.713" height="13.012" viewBox="0 0 9.713 13.012"><g transform="translate(-688.386 -259.934)"><rect width="9.712" height="1.779" rx="0.889" transform="translate(688.387 260.937)" fill="#231f20"/><path d="M695.995,272.946H690.52a.783.783,0,0,1-.82-.578l-1.308-8.676c-.058-.391.326-.734.821-.734h8.059c.5,0,.879.342.821.732l-1.277,8.676A.784.784,0,0,1,695.995,272.946Z" fill="#231f20"/><rect width="0.803" height="7.919" rx="0.401" transform="translate(692.841 263.992)" fill="#fff"/><rect width="0.803" height="7.919" rx="0.401" transform="translate(695.512 263.972) rotate(4.475)" fill="#fff"/><rect width="0.803" height="7.919" rx="0.401" transform="translate(691.592 271.867) rotate(175.525)" fill="#fff"/><rect width="3.17" height="0.866" transform="translate(691.658 259.934)" fill="#231f20"/></g></svg>